<?xml version="1.0" encoding="UTF-8" standalone="no"?>
<svg
   xmlns:dc="http://purl.org/dc/elements/1.1/"
   xmlns:cc="http://creativecommons.org/ns#"
   xmlns:rdf="http://www.w3.org/1999/02/22-rdf-syntax-ns#"
   xmlns:svg="http://www.w3.org/2000/svg"
   xmlns="http://www.w3.org/2000/svg"
   xmlns:sodipodi="http://sodipodi.sourceforge.net/DTD/sodipodi-0.dtd"
   xmlns:inkscape="http://www.inkscape.org/namespaces/inkscape"
   enable-background="new 0 0 55 55"
   height="55px"
   version="1.1"
   viewBox="0 0 55 55"
   width="55px"
   x="0px"
   xml:space="preserve"
   y="0px"
   id="svg2"
   sodipodi:version="0.32"
   inkscape:version="0.46"
   sodipodi:docname="media-playback-start-back.svg"
   inkscape:output_extension="org.inkscape.output.svg.inkscape"><metadata
     id="metadata20"><rdf:RDF><cc:Work
         rdf:about=""><dc:format>image/svg+xml</dc:format><dc:type
           rdf:resource="http://purl.org/dc/dcmitype/StillImage" /></cc:Work></rdf:RDF></metadata><defs
     id="defs18"><inkscape:perspective
       sodipodi:type="inkscape:persp3d"
       inkscape:vp_x="0 : 27.5 : 1"
       inkscape:vp_y="0 : 1000 : 0"
       inkscape:vp_z="55 : 27.5 : 1"
       inkscape:persp3d-origin="27.5 : 18.333333 : 1"
       id="perspective22" /></defs><sodipodi:namedview
     inkscape:window-height="735"
     inkscape:window-width="1278"
     inkscape:pageshadow="2"
     inkscape:pageopacity="0.0"
     guidetolerance="10.0"
     gridtolerance="10.0"
     objecttolerance="10.0"
     borderopacity="1.0"
     bordercolor="#666666"
     pagecolor="#ffffff"
     id="base"
     showgrid="true"
     inkscape:zoom="8.4"
     inkscape:cx="27.5"
     inkscape:cy="22.320051"
     inkscape:window-x="0"
     inkscape:window-y="32"
     inkscape:current-layer="svg2"><inkscape:grid
       type="xygrid"
       id="grid2395" /></sodipodi:namedview><g
     display="block"
     id="media-playback-start"
     transform="matrix(0.4908954,-0.8712186,0.8712186,0.4908954,-9.9581467,37.958872)"
     style="display:block">
	<g
   display="inline"
   id="g5"
   style="display:inline">
		<g
   id="g7">
			<g
   id="g9">
				<g
   id="g11">
					<path
   d="M 27.496,5.051 C 15.036,5.07 4.952,15.155 4.93,27.618 C 4.952,40.08 15.036,50.164 27.496,50.185 C 39.961,50.164 50.045,40.081 50.064,27.619 C 50.045,15.155 39.961,5.07 27.496,5.051 z M 21.551,37.977 L 21.551,17.667 L 39.512,27.822 L 21.551,37.977 z"
   id="path13"
   style="fill:#FFFFFF" />
				</g>
			</g>
			<path
   d="M 27.498,0 C 12.311,0 0,12.313 0,27.5 C 0,42.688 12.311,55 27.498,55 C 42.686,55 55,42.688 55,27.5 C 55,12.313 42.686,0 27.498,0 z M 27.496,52.646 C 13.67,52.646 2.463,41.437 2.461,27.613 C 2.463,13.787 13.67,2.577 27.496,2.574 C 41.322,2.577 52.531,13.787 52.535,27.612 C 52.531,41.437 41.322,52.646 27.496,52.646 z"
   id="path15"
   style="fill:#FFFFFF" />
		</g>
	</g>
</g></svg>
